# xmcd CD database file
#
# Track frame offsets:
#	150
#	24628
#	44820
#	69485
#	97128
#	111328
#	130373
#	152615
#	181568
#	203225
#
# Disc length: 2984 seconds
#
# Revision: 1
# Processed by: cddbd v1.5.2PL0 Copyright (c) Steve Scherf et al.
# Submitted via: jetAudio 7
#
DISCID=8d0ba60a
DTITLE=Fried Pride - Musicream
DYEAR=2006
DGENRE=Jazz
TTITLE0=????????
TTITLE1=?????????
TTITLE2=??KISS
TTITLE3=Nightbirds
TTITLE4=Words With Wings
TTITLE5=Get Down To Me
TTITLE6=Midas Touch
TTITLE7=???
TTITLE8=Higher Ground
TTITLE9=Lala Means I Love You
EXTD=YEAR: 2006
EXTT0=
EXTT1=
EXTT2=
EXTT3=
EXTT4=
EXTT5=
EXTT6=
EXTT7=
EXTT8=
EXTT9=
PLAYORDER=
